<?xml version="1.0" encoding="UTF-8" standalone="no"?>
<!-- Created with Inkscape (http://www.inkscape.org/) -->

<svg
   xmlns:dc="http://purl.org/dc/elements/1.1/"
   xmlns:cc="http://creativecommons.org/ns#"
   xmlns:rdf="http://www.w3.org/1999/02/22-rdf-syntax-ns#"
   xmlns:svg="http://www.w3.org/2000/svg"
   xmlns="http://www.w3.org/2000/svg"
   version="1.1"
   width="300"
   height="366.18716"
   id="svg3463">
  <defs
     id="defs3465" />
  <metadata
     id="metadata3468">
    <rdf:RDF>
      <cc:Work
         rdf:about="">
        <dc:format>image/svg+xml</dc:format>
        <dc:type
           rdf:resource="http://purl.org/dc/dcmitype/StillImage" />
        <dc:title></dc:title>
      </cc:Work>
    </rdf:RDF>
  </metadata>
  <g
     transform="translate(-141.0649,-214.16757)"
     id="layer1">
    <g
       transform="matrix(1.0182243,0,0,1.0182243,-2.5708067,-10.576549)"
       id="g4053">
      <path
         d="m 141.07533,220.72162 129.99571,0 c 11.07018,0.18673 15.65268,5.42027 17.31813,12.93245 1.64778,-7.51218 6.24795,-12.74572 17.31055,-12.93245 l 129.98562,0 0,83.96881 c -13.15703,7.54498 -22.21101,22.99831 -22.21101,40.76308 0,17.75972 9.05398,33.22314 22.21101,40.75551 l 0,139.32221 c 0.33057,15.61735 -7.40619,25.73621 -26.91715,27.78269 l -89.34619,0 c -16.23559,0.68384 -27.35623,8.57453 -31.03283,27.0408 -3.67913,-18.46627 -14.80482,-26.35696 -31.03788,-27.0408 l -89.34114,0 c -19.53367,-2.04648 -27.27043,-12.16534 -26.93482,-27.78269 l 0,-139.32221 c 13.16713,-7.53237 22.22867,-22.99579 22.22867,-40.75551 0,-17.76477 -9.06154,-33.2181 -22.22867,-40.76308 l 0,-83.96881"
         id="path3259"
         style="fill:#ffffff;fill-opacity:1;fill-rule:evenodd;stroke:none" />
      <path
         d="m 397.93269,221.98332 36.48843,0 0,36.53638 -250.27632,293.52747 -16.06904,0 -1.70582,-0.19178 -1.67807,-0.26244 -1.62507,-0.29523 -1.5418,-0.34823 -1.47619,-0.40627 -1.41058,-0.41384 -1.3475,-0.46431 -1.27937,-0.51729 -1.21628,-0.54001 -1.15824,-0.59553 -1.08506,-0.63842 -1.01946,-0.65861 -0.96142,-0.70403 -0.91095,-0.74188 -0.84281,-0.78982 -0.78478,-0.80749 -0.73431,-0.85039 -0.68889,-0.90843 -0.62581,-0.90842 -0.57533,-0.96647 -0.54001,-1.00179 -0.46431,-1.03207 -0.4315,-1.08759 -0.35328,-1.1002 -0.33813,-1.16077 -0.29019,-1.19104 -0.21954,-1.22133 -0.16402,-1.26927 -0.15141,-1.29451 -0.0908,-1.35255 -0.0328,-1.35254 0.0177,-1.44339 0,-3.78258 255.58304,-299.76533"
         id="path3263"
         style="fill:#00a650;fill-opacity:1;fill-rule:evenodd;stroke:none" />
      <path
         d="m 434.42112,272.13599 0,31.83779 -0.64347,0.38356 -1.21376,0.78983 -1.20871,0.84029 -1.16329,0.88824 -1.16581,0.94123 -1.11535,0.97908 -1.09011,1.01693 -1.05983,1.05226 -1.02955,1.09264 -0.99674,1.13553 -0.94376,1.16581 -0.93113,1.20114 -0.89076,1.24909 -0.83777,1.27179 -0.81506,1.3046 -0.79235,1.33993 -0.70908,1.36769 -0.70151,1.39292 -0.64346,1.43077 -0.60562,1.44338 -0.57029,1.48881 -0.52235,1.50648 -0.4744,1.52161 -0.42393,1.55189 -0.37598,1.58218 -0.34823,1.58217 -0.27758,1.62507 -0.2372,1.62003 -0.18673,1.66545 -0.12365,1.66544 -0.0984,1.68059 -0.0227,1.7033 0.0227,1.69068 0.0984,1.68816 0.12365,1.68059 0.18673,1.64021 0.2372,1.64021 0.27758,1.61498 0.34823,1.57208 0.37598,1.58975 0.42393,1.56703 0.4744,1.51909 0.52235,1.509 0.57029,1.46862 0.60562,1.44843 0.64346,1.42825 0.70151,1.40301 0.70908,1.36264 0.79235,1.33993 0.81506,1.30208 0.83777,1.28188 0.89076,1.23395 0.93113,1.20619 0.94376,1.17338 0.99674,1.12796 1.02955,1.09264 1.05983,1.0674 1.09011,1.00179 1.11535,0.9816 1.16581,0.92862 1.16329,0.88319 1.20871,0.84534 1.21376,0.81001 0.64347,0.36842 0,138.61061 0.0177,1.44339 -0.058,1.35254 -0.0732,1.35255 -0.12869,1.29451 -0.18169,1.26927 -0.24224,1.22133 -0.26244,1.19104 -0.33309,1.16077 -0.36337,1.1002 -0.4315,1.08759 -0.4643,1.03207 -0.54506,1.00179 -0.57029,0.96647 -0.6359,0.90842 -0.66365,0.90843 -0.74693,0.85039 -0.77721,0.80749 -0.85796,0.78982 -0.90338,0.74188 -0.97403,0.70403 -1.00936,0.65861 -1.09516,0.63842 -1.14563,0.59553 -1.22132,0.54001 -1.26171,0.51729 -1.35002,0.46431 -1.41563,0.41384 -1.48376,0.40627 -1.56451,0.34823 -1.59984,0.29523 -1.67302,0.26244 -1.71086,0.19178 -89.30834,0 -1.5746,0.0833 -1.50143,0.13626 -1.49133,0.16907 -1.45348,0.23215 -1.42573,0.27758 -1.40553,0.30785 -1.36012,0.36842 -1.3374,0.41889 -1.28946,0.46178 -1.2718,0.51477 -1.24151,0.56272 -1.19862,0.61824 -1.16834,0.6687 -1.12291,0.72169 -1.09264,0.78731 -1.05226,0.8201 -1.01693,0.88572 -0.96646,0.9488 -0.94628,0.98413 -0.89833,1.04469 -0.87057,1.11534 -0.7974,1.17591 -0.76964,1.22132 -0.7444,1.26171 -0.67628,1.3374 -0.63589,1.3803 -0.6031,1.45096 -0.54758,1.51404 -0.5072,1.54433 -0.0303,0.11355 -0.0353,-0.11355 -0.51225,-1.54433 -0.53749,-1.51404 -0.61066,-1.45096 -0.64347,-1.3803 -0.68132,-1.3374 -0.73178,-1.26171 -0.76964,-1.22132 -0.81506,-1.17591 -0.84534,-1.11534 -0.90338,-1.04469 -0.93366,-0.98413 -0.97908,-0.9488 -1.01189,-0.88572 -1.0674,-0.8201 -1.07244,-0.78731 -1.13806,-0.72169 -1.17338,-0.6687 -1.20114,-0.61824 -1.22385,-0.56272 -1.2718,-0.51477 -1.29703,-0.46178 -1.33488,-0.41889 -1.37273,-0.36842 -1.38788,-0.30785 -1.41815,-0.27758 -1.46862,-0.23215 -1.48376,-0.16907 -1.51152,-0.13626 -1.55694,-0.0833 -61.63668,0 238.65849,-279.91118 z m -158.85337,-49.71864 0.78478,0.14383 0.76207,0.19935 0.7116,0.22458 0.7015,0.20692 0.64852,0.26496 0.61571,0.27758 0.57786,0.29019 0.57786,0.32804 0.52487,0.32804 0.50215,0.34823 0.4845,0.38608 0.44159,0.39618 0.42394,0.41131 0.41383,0.43403 0.38609,0.44412 0.3558,0.46935 0.34318,0.48702 0.31795,0.49458 0.29524,0.5274 0.27757,0.55514 0.23468,0.55011 0.24477,0.59552 0.22963,0.58291 0.21196,0.62075 0.2044,0.64095 0.16907,0.64599 1.3803,5.87953 1.37778,-5.87953 0.18925,-0.64599 0.17916,-0.64095 0.19431,-0.62075 0.22963,-0.58291 0.22963,-0.59552 0.25991,-0.55011 0.28514,-0.55514 0.29272,-0.5274 0.33309,-0.49458 0.32047,-0.48702 0.36085,-0.46935 0.3886,-0.44412 0.40879,-0.43403 0.42393,-0.41131 0.45422,-0.39618 0.47944,-0.38608 0.4845,-0.34823 0.53244,-0.32804 0.57785,-0.32804 0.58796,-0.29019 0.61823,-0.27758 0.65356,-0.26496 0.69394,-0.20692 0.70908,-0.22458 0.75197,-0.19935 0.7974,-0.14383 0.83272,-0.14131 0.86553,-0.10851 0.88824,-0.0959 0.9387,-0.0707 0.99675,-0.0252 80.59249,0 -243.9678,286.15661 0,-121.21931 0.61824,-0.36842 1.23899,-0.81001 1.2188,-0.84534 1.16329,-0.8832 1.15824,-0.92861 1.12544,-0.9816 1.0775,-1.00179 1.05226,-1.0674 1.03964,-1.09264 0.98413,-1.12796 0.96141,-1.17338 0.92357,-1.20619 0.88824,-1.23395 0.84281,-1.28189 0.81254,-1.30207 0.78226,-1.33993 0.73683,-1.36264 0.67375,-1.40301 0.65861,-1.42825 0.60309,-1.44843 0.56524,-1.46862 0.5173,-1.509 0.47188,-1.51909 0.43655,-1.56703 0.37598,-1.58975 0.33309,-1.57208 0.28263,-1.61498 0.2372,-1.64021 0.18673,-1.64021 0.12869,-1.68059 0.0908,-1.68816 0.0202,-1.69068 -0.0202,-1.7033 -0.0908,-1.68059 -0.12869,-1.66544 -0.18673,-1.66545 -0.2372,-1.62003 -0.28263,-1.62507 -0.33309,-1.58217 -0.37598,-1.58218 -0.43655,-1.55189 -0.47188,-1.52161 -0.5173,-1.50648 -0.56524,-1.48881 -0.60309,-1.44338 -0.65861,-1.43077 -0.67375,-1.39292 -0.73683,-1.36769 -0.78226,-1.33993 -0.81254,-1.3046 -0.84281,-1.27179 -0.88824,-1.24909 -0.92357,-1.20114 -0.96141,-1.16581 -0.98413,-1.13553 -1.03964,-1.09264 -1.05226,-1.05226 -1.0775,-1.01693 -1.12544,-0.97908 -1.15824,-0.94123 -1.16329,-0.88824 -1.2188,-0.84029 -1.23899,-0.78983 -0.61824,-0.38356 0,-81.99046 128.69868,0 0.97656,0.0252 0.9488,0.0707 0.90338,0.0959 0.85796,0.10851 0.83272,0.14131"
         id="path3271"
         style="fill:#0071bc;fill-opacity:1;fill-rule:evenodd;stroke:none" />
      <path
         d="m 434.42112,442.73833 -2.93725,0 c -0.80244,1.55694 -2.66471,0.40122 -4.20904,0.17411 -0.13121,-0.058 -0.27505,-0.13374 -0.42897,-0.17411 l -4.71625,0 c -0.67375,0.30785 -1.32226,0.78225 -1.91021,1.40806 6.28327,15.2565 -12.73058,35.93075 -34.75738,28.29493 -3.37631,2.98519 -6.03598,2.34677 -8.60481,1.2289 -3.7952,0.0984 -7.17909,2.26097 -10.14913,6.47001 0.80749,3.4823 -1.64779,4.50428 -7.3961,3.06594 -13.53554,15.88483 -17.88337,42.03992 -19.1804,68.841 l 68.56343,0 1.71086,-0.19178 1.67302,-0.26244 1.59984,-0.29523 1.56451,-0.34823 1.48376,-0.40627 1.41563,-0.41384 1.35002,-0.46431 1.26171,-0.51729 1.22132,-0.54001 1.14563,-0.59553 1.09516,-0.63842 1.00936,-0.65861 0.97403,-0.70403 0.90338,-0.74188 0.85796,-0.78982 0.77721,-0.80749 0.74693,-0.85039 0.66365,-0.90843 0.6359,-0.90842 0.57029,-0.96647 0.54506,-1.00179 0.4643,-1.03207 0.4315,-1.08759 0.36337,-1.1002 0.33309,-1.16077 0.26244,-1.19104 0.24224,-1.22133 0.18169,-1.26927 0.12869,-1.29451 0.0732,-1.35255 0.058,-1.35254 -0.0177,-1.44339 0,-82.7929"
         id="path3331"
         style="fill:#ed1c24;fill-opacity:1;fill-rule:evenodd;stroke:none" />
      <path
         d="m 420.2194,444.14639 c 1.95563,-2.04901 4.32006,-2.44266 7.05543,-1.23395 2.33415,0.33057 5.52121,2.87921 4.32512,-5.5313 -2.4477,-4.72634 -5.32691,-9.0237 -8.6149,-12.91731 -4.50176,-3.28547 -6.55833,-2.4578 -6.14702,2.45527 -0.19935,5.11999 -2.45275,6.15459 -6.76272,3.07856 -11.27457,-7.62068 -38.05547,1.99853 -37.2177,21.84006 -4.30745,1.63012 -5.74074,4.49923 -4.30745,8.61238 -4.20904,4.49923 -7.99414,6.13945 -11.38308,4.92569 -3.3864,-1.54937 -5.22344,0.81506 -6.16215,5.83916 -32.35762,26.79098 -46.61233,55.64359 -50.40501,86.33072 l 1.0674,-0.6788 1.16834,-0.6687 1.19862,-0.61824 1.24151,-0.56272 1.2718,-0.51477 1.28946,-0.46178 1.3374,-0.41889 1.36012,-0.36842 1.40553,-0.30785 1.42573,-0.27758 1.45348,-0.23215 1.49133,-0.16907 1.50143,-0.13626 1.5746,-0.0833 20.74491,0 c 1.29703,-26.80108 5.64486,-52.95617 19.1804,-68.841 5.74831,1.43834 8.20359,0.41636 7.3961,-3.06594 2.97004,-4.20904 6.35393,-6.3716 10.14913,-6.47001 2.56883,1.11787 5.2285,1.75629 8.60481,-1.2289 22.0268,7.63582 41.04065,-13.03843 34.75738,-28.29493"
         id="path3335"
         style="fill:#6d6e70;fill-opacity:1;fill-rule:evenodd;stroke:none" />
      <path
         d="m 426.24024,441.53971 0.31795,0.0807 0.54505,0.19682 0.45926,0.1716 0.13879,0.0404 0.25991,0.0479 0.25234,0.0707 0.22963,0.0606 0.24477,0.0757 0.22963,0.048 0.20187,0.0606 0.21449,0.0606 0.20188,0.0656 0.18925,0.0252 0.17159,0.0454 0.3558,0 0.0908,-0.0278 0.0656,-0.0252 0.0505,-0.0252 0.0151,-0.0353 0.058,-0.0404 0.0505,-0.0606 0.0454,-0.10851 0.0656,-0.15897 0.0732,-0.2044 0.0404,-0.23972 0.0606,-0.323 0.0328,-0.37094 0,-0.90843 -0.0126,-0.54757 -0.0606,-0.61067 -0.0782,-0.6687 -0.0681,-0.57786 -0.14888,-0.29271 -0.22963,-0.42646 -0.2372,-0.43907 -0.24477,-0.42393 -0.23468,-0.41889 -0.22963,-0.42141 -0.24477,-0.43655 -0.2372,-0.42141 -0.25234,-0.40879 -0.25991,-0.40627 -0.24477,-0.42393 -0.24477,-0.40122 -0.27253,-0.40627 -0.26495,-0.40879 -0.25487,-0.40879 -0.25991,-0.39113 -0.27,-0.3987 -0.27001,-0.3886 -0.27757,-0.39617 -0.27758,-0.38861 -0.27757,-0.3886 -0.28262,-0.38356 -0.26244,-0.38861 -0.28009,-0.38355 -0.29777,-0.37347 -0.28766,-0.37598 -0.29272,-0.36842 -0.26748,-0.36337 -0.3129,-0.37851 -0.29272,-0.3558 -0.31038,-0.36842 -0.21953,-0.27757 -0.6788,-0.47945 -0.71664,-0.43403 -0.65357,-0.33561 -0.55262,-0.24477 -0.48197,-0.1514 -0.37347,-0.0707 -0.27505,0 -0.18421,0.0606 -0.13878,0.0732 -0.12617,0.1186 -0.14131,0.23216 -0.11103,0.33308 -0.10094,0.46431 -0.058,0.59552 -0.0177,0.71413 0.0656,0.88319 -0.0808,1.01693 -0.11356,0.73684 c 2.31397,1.38282 4.27465,2.97761 5.76346,4.96353 1.59984,2.16256 2.63696,4.744 2.87416,7.90331 z m -6.26309,1.50647 0.41384,-0.34066 0.44664,-0.32047 0.4416,-0.28767 0.49963,-0.25739 0.48954,-0.19682 0.49459,-0.15898 0.53244,-0.12617 0.5072,-0.058 0.53749,-0.0278 0.56271,0.0278 0.37599,0.0328 c -0.27,-2.83378 -1.22637,-5.17046 -2.6849,-7.13366 -1.32984,-1.7891 -3.10127,-3.26277 -5.18055,-4.54718 l -0.22711,0.69898 -0.31795,0.65861 -0.39869,0.57029 -0.50973,0.4744 -0.57534,0.34571 -0.64599,0.20692 -0.67627,0.0833 -0.7116,-0.0833 -0.5602,-0.13879 c 1.31974,1.20114 2.52341,2.47294 3.59333,3.85829 1.55442,2.0061 2.76818,4.2166 3.59333,6.71982 z m -62.91857,23.28598 -0.21449,-0.0757 -0.58543,-0.23468 -0.46683,-0.11355 -0.40627,-0.053 -0.36842,0 -0.30028,0.0757 -0.29272,0.1186 -0.28766,0.19682 -0.27253,0.22711 -0.30281,0.34318 -0.27253,0.42646 -0.25234,0.48702 -0.26243,0.56272 -0.2372,0.67374 -0.21702,0.73684 -0.18925,0.79487 -0.10598,0.53749 c 2.00106,1.47114 3.64632,3.11892 4.90802,5.00138 1.23647,1.84209 2.08181,3.91128 2.48303,6.20758 l 0.64599,0.1615 0.50468,0.0883 0.46431,0.11355 0.43907,0.0656 0.43907,0.0808 0.39365,0.0606 0.39113,0.0252 0.36842,0.0252 0.34066,0.0252 0.30281,0 0.3028,-0.0252 0.27253,-0.0252 0.2372,-0.0378 0.21954,-0.0505 0.20944,-0.058 0.1615,-0.058 0.14636,-0.0782 0.12617,-0.0606 0.0959,-0.0833 0.0883,-0.0808 0.0757,-0.0807 0.0732,-0.0984 0.0656,-0.0959 0.0303,-0.0984 0.0555,-0.13121 0.0101,-0.15141 0.0278,-0.16906 0.005,-0.19431 -0.005,-0.21196 -0.0177,-0.0631 -0.0202,0 c -0.0479,-0.3558 -0.0858,-0.72422 -0.16907,-1.08759 l -0.003,-0.0505 c -0.55263,-2.81612 -1.55947,-5.32186 -2.98267,-7.53489 -1.47619,-2.2963 -3.39902,-4.3024 -5.65242,-6.04103 z m 12.03159,-5.05943 -0.24477,0.23468 -0.41636,0.41889 -0.40122,0.39869 -0.38104,0.37851 -0.41383,0.34823 -0.39366,0.35076 -0.39112,0.33309 -0.41132,0.30533 -0.38103,0.29776 -0.38356,0.27 -0.39113,0.27001 -0.3886,0.24225 -0.40375,0.22963 -0.38355,0.19682 -0.38608,0.19935 -0.38104,0.18169 -0.38356,0.15897 -0.40374,0.14636 -0.38608,0.1186 -0.38356,0.10598 -0.38356,0.0858 -0.38103,0.0807 -0.39365,0.053 -0.38356,0.0252 -0.39365,0 -0.36842,0 -0.0757,0 c 1.76134,1.5418 3.27538,3.25015 4.49166,5.16541 1.3475,2.09443 2.34929,4.421 2.95491,7.01506 l 0.0631,-0.0858 0.30281,-0.36842 0.29776,-0.38103 0.30786,-0.35328 0.30028,-0.33561 0.30786,-0.34318 0.32047,-0.32048 0.29272,-0.30028 0.32551,-0.30281 0.34319,-0.28262 0.30028,-0.28515 0.33309,-0.24224 0.35328,-0.24225 0.32804,-0.24477 0.33814,-0.22711 0.35327,-0.21449 0.34319,-0.18168 0.34318,-0.20187 0.35832,-0.15141 0.34319,-0.18673 0.36841,-0.13374 0.36337,-0.13626 0.37094,-0.13122 0.37852,-0.0908 0.35832,-0.11103 0.36842,-0.0757 0.38608,-0.0732 0.38355,-0.0606 0.38356,-0.0353 0.31038,-0.0252 c -0.43403,-2.16003 -1.22385,-4.15857 -2.35181,-6.01075 -1.25161,-1.99096 -2.89939,-3.80277 -4.93326,-5.47326 z m 4.02231,-8.52658 -0.27758,0.10851 -0.36084,0.16149 -0.323,0.16403 -0.3129,0.15392 -0.30029,0.17412 -0.30028,0.16907 -0.24477,0.17916 -0.2473,0.17411 -0.22458,0.19935 -0.20692,0.19178 -0.18673,0.18926 -0.18421,0.1943 -0.1615,0.19178 -0.13121,0.22206 -0.13627,0.20187 -0.11607,0.22458 -0.0883,0.22711 -0.0984,0.21953 -0.0732,0.22963 -0.0631,0.23468 -0.0505,0.25486 -0.0454,0.24477 -0.0126,0.27253 -0.0151,0.26496 0.0151,0.29019 0.0126,0.29524 0.0454,0.29271 0.0656,0.31038 0.0479,0.33562 0.0858,0.32047 0.11103,0.34066 0.2044,0.63842 c 2.17013,1.75377 3.96427,3.68669 5.26887,5.83916 1.28189,2.02377 2.11966,4.21661 2.53097,6.5987 l 0.13626,0.0429 0.21954,0.10346 0.2372,0.0959 0.22206,0.0833 0.22711,0.0656 0.21196,0.0908 0.2372,0.0656 0.21954,0.058 0.20692,0.0555 0.22458,0.0429 0.22206,0.0404 0.22711,0.0252 0.21449,0.0252 0.21701,0.0252 0.20944,0 0.22711,-0.0252 0.22458,0 0.22206,-0.0379 0.22711,-0.0252 0.22963,-0.058 0.2372,-0.0555 0.23467,-0.0934 0.25487,-0.0707 0.24224,-0.11607 0.24225,-0.1186 0.25234,-0.12617 0.28262,-0.15898 0.26748,-0.16654 0.25234,-0.19683 0.28767,-0.20944 0.29272,-0.21954 0.48954,-0.42898 c -0.42393,-3.76492 -1.7462,-7.12104 -3.73969,-10.17689 -2.07676,-3.16687 -4.89288,-6.02084 -8.18592,-8.63256 z m -33.91961,99.30102 -6.23281,0 c 2.15499,-22.11512 6.38674,-44.95698 18.36282,-62.37856 -12.30664,15.20603 -17.54776,37.4347 -20.97706,62.37856 l -5.91739,0 c 2.13733,-14.53229 5.76851,-29.07467 10.89859,-43.61957 -5.26382,10.56801 -9.80848,24.11365 -12.97787,43.61957 l -2.96248,0 -1.5746,0.0833 -1.44339,0.13626 c 4.43867,-28.29746 18.4587,-57.51343 31.87312,-70.90262 -14.68369,14.22696 -29.973,42.17366 -35.05513,71.3417 l -1.24657,0.23972 -1.40553,0.30785 -1.36012,0.36842 -0.83272,0.26244 c 3.235,-23.07149 12.88198,-43.27892 26.37715,-61.45248 -14.3607,15.83689 -25.41573,35.39075 -29.59954,62.64352 l -1.08506,0.50468 -1.19862,0.61824 -1.16834,0.6687 -0.0126,0 0.0303,-0.21701 0.44916,-3.22491 0.53749,-3.18959 0.61823,-3.1921 0.71413,-3.17192 0.79739,-3.15678 0.86805,-3.15426 0.9917,-3.13407 1.0674,-3.11135 1.15824,-3.10127 1.24404,-3.07603 1.37526,-3.08612 1.44339,-3.06594 1.56703,-3.05332 1.66545,-3.02808 1.76638,-3.01547 1.87237,-3.00285 1.99601,-2.99276 2.10704,-2.97762 2.20798,-2.95238 2.33163,-2.94986 2.45779,-2.93977 2.58649,-2.91453 2.68995,-2.91706 2.83883,-2.8893 2.93977,-2.87163 3.09874,-2.86406 3.20472,-2.8565 3.34351,-2.82621 c 1.83704,1.37273 3.36118,2.90191 4.52195,4.62288 1.22385,1.80928 2.03134,3.828 2.38209,6.11673 l -1.56199,1.92788 -1.53675,2.10957 -1.45348,2.22059 -1.36264,2.28621 -1.28946,2.37704 -1.18852,2.47546 -1.13554,2.52088 -1.04469,2.6193 -0.97908,2.67228 -0.90085,2.74799 -0.82768,2.80855 -0.78982,2.85397 -0.69394,2.90192 -0.65356,2.98266 -0.6031,3.00538 -0.52991,3.06089 -0.48449,3.09369 -0.44665,3.12902 -0.3987,3.15173 -0.34318,3.18202 -0.32047,3.21481 -0.26748,3.23501 -0.20187,3.23248 -0.20692,3.27033 -0.11356,2.28368 z m 79.93641,-108.1506 0.0959,-0.0984 c -0.79992,-2.59154 -2.02377,-4.86008 -3.58071,-6.88133 -2.14741,-2.79088 -4.92064,-5.1427 -8.11779,-7.21441 l -0.10598,-0.0656 -1.18853,-0.4315 -1.24151,-0.35076 -1.32984,-0.27 -1.36011,-0.15393 -1.41815,-0.0908 -1.48629,0 -1.46357,0.10346 -1.51152,0.16402 -1.53676,0.2801 -1.51656,0.35328 -1.53423,0.43907 -1.52666,0.51225 -1.49386,0.58795 -1.47619,0.6788 -1.42572,0.75954 -1.39292,0.8302 -1.34245,0.90591 -1.27937,0.95637 -1.22385,1.04973 -1.14058,1.11787 -1.05983,1.20114 -0.95889,1.24404 -0.86806,1.31469 -0.7772,1.37778 -0.65357,1.43582 -0.54,1.50143 -0.43908,1.58217 -0.28514,1.62255 -0.14384,1.66292 0,2.05153 c 3.32585,2.6521 6.15711,5.55401 8.28939,8.77893 2.08433,3.22995 3.4722,6.7602 3.89614,10.75222 l 1.77143,0.5602 1.9733,0.46178 1.9405,0.30281 1.91778,0.17159 1.8648,0.0252 1.8547,-0.11103 1.78657,-0.21954 1.75882,-0.34318 1.70582,-0.44412 1.65787,-0.5602 1.59984,-0.65356 1.5418,-0.76459 1.45096,-0.85796 1.42068,-0.91852 1.32226,-0.99927 1.25161,-1.07749 1.19105,-1.1431 1.09263,-1.1961 0.99675,-1.24908 0.89833,-1.30713 0.82515,-1.31217 0.70908,-1.37525 0.62076,-1.38283 0.49711,-1.42824 0.38355,-1.42068 0.26748,-1.41311 0.16403,-1.44591 0.0328,-1.43077 -0.0782,-1.42068 -0.22206,-1.41058 -0.058,-0.22711 -0.15393,0 c -0.0833,-0.54253 -0.18673,-1.09263 -0.32047,-1.62759 l -0.5274,-1.50143"
         id="path3339"
         style="fill:#ffffff;fill-opacity:1;fill-rule:evenodd;stroke:none" />
      <path
         d="m 388.12169,473.22358 c -0.88067,-0.21197 -1.77143,-0.46683 -2.65967,-0.78226 -3.37631,2.98519 -6.03598,2.34677 -8.60481,1.2289 -3.7952,0.0984 -7.17909,2.26097 -10.14913,6.47001 0.80749,3.4823 -1.64779,4.50428 -7.3961,3.06594 -0.41132,0.49711 -0.82768,1.01441 -1.2289,1.52666 l 30.03861,0 0,-11.50925 z m -38.59295,26.61687 c -1.65788,4.06268 -3.05837,8.40041 -4.20147,12.94507 l 42.79442,0 0,-12.94507 -38.59295,0 z m -7.15385,28.06278 c -0.65104,4.22923 -1.11787,8.56948 -1.48377,12.96273 l 47.23057,0 0,-12.96273 -45.7468,0 z m 14.80481,-41.96926 c -2.8464,3.8381 -5.2512,8.19602 -7.26993,12.9602 l 13.36395,0 0,-12.9602 -6.09402,0 z m -12.15524,28.06026 c -1.00936,4.16866 -1.84208,8.49882 -2.52593,12.95263 l 20.77519,0 0,-12.95263 -18.24926,0 z m 67.48089,0 -48.29292,0 0,12.95389 48.29292,0 0,-12.95389 z m -48.29544,0 z m 48.29544,-28.06026 -48.29292,0 0,12.96222 48.29292,0 0,-12.96222 z m -48.29544,0 z m 48.29544,-18.20132 c -1.42068,1.15067 -2.97005,2.19284 -4.62036,3.0836 l 4.62036,0 0,-3.0836 z m -49.23163,84.31452 -23.14214,0 c 0.17159,-3.34604 0.37599,-6.6845 0.6359,-9.99268 l 22.50624,0 0,9.99268 z m 49.23163,-0.53496 -0.42646,0.0807 -1.67302,0.26244 -1.71086,0.19178 -44.4851,0 0,-9.99268 48.29544,0 0,9.45772 z m 17.56037,-9.45772 -0.58038,0.76711 -0.74693,0.85039 -0.77721,0.80749 -0.85796,0.78982 -0.90338,0.74188 -0.97403,0.70403 -1.00936,0.65861 -1.09516,0.63842 -1.14563,0.59553 -1.22132,0.54001 -1.26171,0.51729 -1.35002,0.46431 -1.41563,0.41384 -1.48376,0.40627 -1.56451,0.34823 -0.2372,0.0505 0,-9.29369 16.62419,0 z m 4.34783,-14.15126 -0.0328,0.42393 -0.0732,1.35255 -0.12869,1.29451 -0.18169,1.26927 -0.24224,1.22133 -0.26244,1.19104 -0.33309,1.16077 -0.36337,1.1002 -0.4315,1.08759 -0.4643,1.03207 -0.54506,1.00179 -0.48702,0.82768 -41.80019,0 0,-12.96273 45.34558,0 z m 0.008,-13.909 0,11.537 0.0177,1.41563 -20.99725,0 0,-12.95263 20.97959,0 z m -45.35315,-14.15378 45.35567,0 0,12.94607 -45.35567,0 0,-12.94607 z m 45.35315,0 z m -20.97959,-13.90648 20.9806,0 0,12.96222 -20.9806,0 0,-12.96222 z m 20.97959,0 z m 0,-14.17144 0,12.9703 -45.35315,0 0,-11.27205 c 6.12682,1.29198 11.91551,0.47944 16.86896,-1.69825 l 28.48419,0 z m 0,-13.89892 0,12.95264 -20.97959,0 0,-3.91885 c 2.85397,-2.59658 5.08214,-5.72308 6.45235,-9.03379 l 14.52724,0 z M 420.67909,443.6947 c -0.14636,0.13626 -0.31038,0.29271 -0.45926,0.45169 1.65787,4.01726 1.56703,8.38022 0.13121,12.51861 l 14.07051,0 0,-12.9703 -13.74246,0"
         id="path3343"
         style="fill:#ffcb04;fill-opacity:1;fill-rule:evenodd;stroke:none" />
      <path
         d="m 274.81578,273.34218 4.6254,-3.80782 -1.64274,-5.7357 7.36834,1.92536 2.1777,-5.45308 3.54034,5.17803 5.17298,-1.65031 -1.36264,5.45055 4.90297,2.74042 -4.90297,3.53277 1.63264,5.72813 -5.44298,-1.63517 -3.27791,5.44803 -2.98266,-4.62792 -4.9055,1.35002 0,-5.44551 -4.90297,-2.9978"
         id="path3275"
         style="fill:#231f20;fill-opacity:1;fill-rule:evenodd;stroke:none" />
      <path
         d="m 276.85469,273.20339 3.93903,-3.25519 -1.27432,-4.46895 6.34889,1.64021 1.73862,-4.35035 2.78584,4.0753 3.99959,-1.2617 -1.06739,4.26707 4.08791,2.26097 -4.08791,2.94482 1.27179,4.4311 -4.25698,-1.26675 -2.75808,4.60269 -2.44013,-3.76997 -4.24185,1.17338 0,-4.5497 -4.04501,-2.47293"
         id="path3279"
         style="fill:#ffffff;fill-opacity:1;fill-rule:evenodd;stroke:none" />
      <path
         d="m 254.38125,281.15716 3.05331,-2.51331 -1.08001,-3.78511 4.83736,1.27432 1.45601,-3.60342 2.3291,3.41669 3.41669,-1.08759 -0.916,3.6009 3.25015,1.80171 -3.25015,2.33163 1.08255,3.78006 -3.58324,-1.09768 -2.15499,3.60594 -1.98087,-3.05584 -3.2451,0.90338 0,-3.60342 -3.21481,-1.96826"
         id="path3283"
         style="fill:#231f20;fill-opacity:1;fill-rule:evenodd;stroke:none" />
      <path
         d="m 255.71108,281.05875 2.60163,-2.1449 -0.83272,-2.94229 4.19389,1.08254 1.14815,-2.86911 1.82947,2.67229 2.64201,-0.8302 -0.71665,2.81864 2.695,1.48881 -2.695,1.93545 0.84786,2.94229 -2.81612,-0.84786 -1.81685,3.03313 -1.60741,-2.48051 -2.79341,0.76459 0,-2.99275 -2.67985,-1.63012"
         id="path3287"
         style="fill:#ffffff;fill-opacity:1;fill-rule:evenodd;stroke:none" />
      <path
         d="m 233.93914,295.86609 3.04575,-2.52089 -1.07244,-3.77501 4.84493,1.27684 1.42825,-3.61351 2.34929,3.41921 3.40912,-1.08254 -0.89581,3.60595 3.2451,1.79918 -3.2451,2.32406 1.08507,3.78006 -3.59838,-1.08002 -2.15499,3.60595 -1.9733,-3.06846 -3.24005,0.89833 0,-3.60595 -3.22744,-1.9632"
         id="path3291"
         style="fill:#231f20;fill-opacity:1;fill-rule:evenodd;stroke:none" />
      <path
         d="m 235.28412,295.76767 2.60163,-2.13984 -0.84787,-2.93977 4.18381,1.07497 1.15824,-2.87416 1.84461,2.6849 2.62687,-0.82767 -0.71665,2.82621 2.70761,1.48881 -2.70004,1.93293 0.83272,2.91705 -2.78836,-0.84029 -1.83704,3.0508 -1.59984,-2.48808 -2.79845,0.76711 0,-2.99528 -2.66724,-1.63769"
         id="path3295"
         style="fill:#ffffff;fill-opacity:1;fill-rule:evenodd;stroke:none" />
      <path
         d="m 221.67035,318.48336 3.05837,-2.51836 -1.08759,-3.77501 4.85755,1.2617 1.44087,-3.5908 2.3291,3.41416 3.41669,-1.08506 -0.89833,3.5908 3.23753,1.80929 -3.23753,2.3291 1.09263,3.77753 -3.61099,-1.08506 -2.13985,3.59081 -1.97835,-3.0508 -3.235,0.88824 0,-3.58324 -3.2451,-1.9733"
         id="path3299"
         style="fill:#231f20;fill-opacity:1;fill-rule:evenodd;stroke:none" />
      <path
         d="m 223.0229,318.39756 2.59406,-2.15498 -0.84787,-2.94229 4.20652,1.08254 1.15319,-2.87164 1.84209,2.68491 2.61172,-0.83273 -0.7015,2.82117 2.6849,1.48124 -2.6849,1.94302 0.84786,2.91706 -2.80855,-0.83273 -1.82442,3.02809 -1.61498,-2.47294 -2.78836,0.77216 0,-2.99275 -2.66976,-1.63013"
         id="path3303"
         style="fill:#ffffff;fill-opacity:1;fill-rule:evenodd;stroke:none" />
      <path
         d="m 195.50769,317.39325 3.06846,-2.51079 -1.07749,-3.77753 4.85251,1.25413 1.42067,-3.59081 2.34425,3.41165 3.43183,-1.07497 -0.92105,3.58575 3.23753,1.81181 -3.23753,2.33162 1.09264,3.75988 -3.60342,-1.08254 -2.16256,3.58828 -1.96826,-3.04575 -3.2451,0.90085 0,-3.58828 -3.23248,-1.9733"
         id="path3307"
         style="fill:#231f20;fill-opacity:1;fill-rule:evenodd;stroke:none" />
      <path
         d="m 196.85519,317.29736 2.6092,-2.15499 -0.85543,-2.94229 4.20903,1.09264 1.13554,-2.87668 1.83199,2.69247 2.63696,-0.83272 -0.68385,2.81611 2.66977,1.48124 -2.66977,1.94302 0.8403,2.93472 -2.83379,-0.85291 -1.81685,3.04575 -1.58974,-2.49817 -2.8136,0.79235 0,-3.01042 -2.66976,-1.63012"
         id="path3311"
         style="fill:#ffffff;fill-opacity:1;fill-rule:evenodd;stroke:none" />
      <path
         d="m 219.22012,353.63439 3.05332,-2.51331 -1.07497,-3.77502 4.86008,1.24152 1.42572,-3.57314 2.33416,3.39902 3.41164,-1.0674 -0.88824,3.59585 3.22743,1.78657 -3.22743,2.35182 1.08254,3.75988 -3.60594,-1.08507 -2.14995,3.60847 -1.97582,-3.07603 -3.23753,0.92104 0,-3.60342 -3.235,-1.97078"
         id="path3315"
         style="fill:#231f20;fill-opacity:1;fill-rule:evenodd;stroke:none" />
      <path
         d="m 220.56258,353.54607 2.60415,-2.15499 -0.85291,-2.95238 4.20904,1.08506 1.14562,-2.86154 1.84209,2.68238 2.63696,-0.82263 -0.70151,2.80855 2.68238,1.48124 -2.68238,1.93545 0.82263,2.92715 -2.80855,-0.84282 -1.81937,3.05332 -1.60741,-2.48808 -2.78836,0.77217 0,-2.99276 -2.68238,-1.63012"
         id="path3319"
         style="fill:#ffffff;fill-opacity:1;fill-rule:evenodd;stroke:none" />
      <path
         d="m 195.50769,353.90439 3.06846,-2.5234 -1.07749,-3.76492 4.85251,1.25665 1.42067,-3.59585 2.34425,3.41417 3.43183,-1.07497 -0.92105,3.59585 3.23753,1.80171 -3.23753,2.32658 1.09264,3.78006 -3.60342,-1.08759 -2.16256,3.60596 -1.96826,-3.06847 -3.2451,0.89834 0,-3.58072 -3.23248,-1.9834"
         id="path3323"
         style="fill:#231f20;fill-opacity:1;fill-rule:evenodd;stroke:none" />
      <path
         d="m 196.85519,353.81355 2.6092,-2.14742 -0.85543,-2.95743 4.20903,1.09264 1.13554,-2.86912 1.83199,2.68995 2.63696,-0.8302 -0.68385,2.81108 2.66977,1.49385 -2.66977,1.94302 0.8403,2.90949 -2.83379,-0.84786 -1.81685,3.05079 -1.58974,-2.47798 -2.8136,0.76459 0,-3.00285 -2.66976,-1.62255"
         id="path3327"
         style="fill:#ffffff;fill-opacity:1;fill-rule:evenodd;stroke:none" />
    </g>
  </g>
</svg>
